<svg xmlns="http://www.w3.org/2000/svg" xmlns:xlink="http://www.w3.org/1999/xlink" version="1.1" width="256" height="256" viewBox="0 0 256 256" xml:space="preserve">

<defs>
</defs>
<g style="stroke: none; stroke-width: 0; stroke-dasharray: none; stroke-linecap: butt; stroke-linejoin: miter; stroke-miterlimit: 10; fill: none; fill-rule: nonzero; opacity: 1;" transform="translate(1.4065934065934016 1.4065934065934016) scale(2.81 2.81)" >
	<path d="M 73.402 84.237 c 1.611 -1.024 3.038 -2.176 4.446 -3.504 l 0 0 c 5.664 -5.343 6.717 -9.772 2.508 -16.322 l -4.014 -6.246 c -1.884 -2.932 -4.36 -5.38 -7.228 -7.217 c -3.783 -2.424 -8.254 -3.549 -12.747 -3.549 H 56 v 0 v 0 l -22 0 l -0.368 0 c -4.493 0 -8.964 1.126 -12.747 3.549 c -2.868 1.837 -5.343 4.286 -7.228 7.217 l -4.014 6.246 c -4.21 6.55 -3.156 10.979 2.508 16.322 l 0 0 c 1.407 1.328 2.928 2.508 4.539 3.532 l 28.224 2.626 L 73.402 84.237 z" style="stroke: none; stroke-width: 1; stroke-dasharray: none; stroke-linecap: butt; stroke-linejoin: miter; stroke-miterlimit: 10; fill: rgb(99,147,228); fill-rule: nonzero; opacity: 1;" transform=" matrix(1 0 0 1 0 0) " stroke-linecap="round" />
	<path d="M 57.495 67.707 l 10.044 -17.692 c -1.782 -0.929 -3.685 -1.594 -5.647 -2.023 L 51.747 65.904 C 53.749 66.326 55.67 66.936 57.495 67.707 z" style="stroke: none; stroke-width: 1; stroke-dasharray: none; stroke-linecap: butt; stroke-linejoin: miter; stroke-miterlimit: 10; fill: rgb(64,61,68); fill-rule: nonzero; opacity: 1;" transform=" matrix(1 0 0 1 0 0) " stroke-linecap="round" />
	<path d="M 57.495 68.706 c -0.131 0 -0.263 -0.025 -0.389 -0.079 c -1.794 -0.757 -3.666 -1.344 -5.566 -1.745 c -0.312 -0.066 -0.573 -0.276 -0.704 -0.567 c -0.132 -0.291 -0.116 -0.626 0.041 -0.904 l 10.144 -17.912 c 0.215 -0.381 0.651 -0.579 1.084 -0.483 c 2.104 0.459 4.087 1.17 5.895 2.112 c 0.241 0.125 0.42 0.343 0.497 0.604 c 0.077 0.261 0.045 0.541 -0.089 0.777 L 58.365 68.201 C 58.182 68.522 57.844 68.706 57.495 68.706 z M 53.276 65.234 c 1.282 0.327 2.548 0.734 3.782 1.216 l 9.085 -16.004 c -1.182 -0.541 -2.438 -0.979 -3.751 -1.31 L 53.276 65.234 z" style="stroke: none; stroke-width: 1; stroke-dasharray: none; stroke-linecap: butt; stroke-linejoin: miter; stroke-miterlimit: 10; fill: rgb(0,0,0); fill-rule: nonzero; opacity: 1;" transform=" matrix(1 0 0 1 0 0) " stroke-linecap="round" />
	<path d="M 73.402 84.237 C 69.68 73.223 58.368 65.191 45.025 65.191 c -13.343 0 -24.655 8.032 -28.378 19.046 c 0.23 0.147 0.467 0.28 0.7 0.42 l -0.002 0.003 c 0.035 0.021 0.072 0.039 0.107 0.059 c 0.503 0.299 1.014 0.584 1.532 0.852 c 0.073 0.038 0.145 0.078 0.218 0.116 c 0.574 0.291 1.155 0.569 1.747 0.823 c 0.089 0.038 0.181 0.071 0.27 0.108 c 0.392 0.164 0.785 0.327 1.184 0.475 c 0.001 -0.003 0.003 -0.007 0.004 -0.01 c 3.35 1.248 6.919 1.917 10.559 1.917 H 37.2 h 7.826 h 7.826 h 4.231 c 3.643 0 7.217 -0.664 10.57 -1.914 c 0 0.001 0.001 0.002 0.001 0.003 c 0.534 -0.199 1.061 -0.414 1.583 -0.642 c 0.168 -0.074 0.333 -0.155 0.501 -0.232 c 0.439 -0.201 0.873 -0.411 1.301 -0.632 c 0.146 -0.076 0.292 -0.153 0.437 -0.231 c 0.496 -0.267 0.986 -0.547 1.467 -0.843 c 0.046 -0.028 0.094 -0.052 0.14 -0.08 l -0.002 -0.002 C 73.188 84.364 73.297 84.304 73.402 84.237 z M 49.409 83.238 c -1.199 -0.823 -2.718 -1.327 -4.383 -1.327 c -1.664 0 -3.183 0.504 -4.381 1.326 l -10.557 -3.592 c 3.486 -3.718 8.882 -6.11 14.937 -6.11 c 6.056 0 11.456 2.392 14.944 6.11 L 49.409 83.238 z" style="stroke: none; stroke-width: 1; stroke-dasharray: none; stroke-linecap: butt; stroke-linejoin: miter; stroke-miterlimit: 10; fill: rgb(73,73,112); fill-rule: nonzero; opacity: 1;" transform=" matrix(1 0 0 1 0 0) " stroke-linecap="round" />
	<path d="M 57.084 90.002 H 32.966 c -3.66 0 -7.283 -0.649 -10.77 -1.929 c -0.048 -0.011 -0.095 -0.024 -0.142 -0.041 c -0.411 -0.153 -0.817 -0.321 -1.223 -0.491 l -0.283 -0.114 c -0.605 -0.26 -1.206 -0.546 -1.799 -0.848 l -0.145 -0.076 c -0.616 -0.32 -1.144 -0.615 -1.663 -0.924 l -0.118 -0.065 c -0.021 -0.013 -0.041 -0.026 -0.06 -0.04 l -0.147 -0.087 c -0.17 -0.1 -0.339 -0.2 -0.506 -0.306 c -0.388 -0.248 -0.558 -0.728 -0.41 -1.164 c 3.988 -11.799 15.773 -19.727 29.325 -19.727 s 25.337 7.927 29.325 19.727 c 0.148 0.439 -0.023 0.92 -0.414 1.167 l -0.269 0.16 c -0.019 0.014 -0.038 0.026 -0.058 0.038 c -0.016 0.01 -0.101 0.059 -0.116 0.067 c -0.524 0.32 -1.03 0.61 -1.543 0.886 l -0.45 0.238 c 0 0 -0.001 0 -0.002 0.001 c -0.443 0.229 -0.892 0.446 -1.345 0.653 l -0.167 0.078 c -0.114 0.054 -0.229 0.108 -0.347 0.16 c -0.541 0.235 -1.085 0.457 -1.636 0.662 C 64.483 89.337 60.809 90.002 57.084 90.002 z M 22.621 86.109 c 0.045 0.01 0.091 0.022 0.135 0.039 c 3.305 1.231 6.741 1.855 10.21 1.855 h 24.118 c 3.487 0 6.925 -0.622 10.22 -1.851 c 0.519 -0.189 1.029 -0.397 1.533 -0.618 l 0.482 -0.224 c 0.427 -0.194 0.845 -0.397 1.259 -0.611 l 0.426 -0.225 c 0.398 -0.214 0.792 -0.438 1.182 -0.672 c -3.915 -10.409 -14.959 -17.611 -27.161 -17.611 c -12.201 0 -23.244 7.203 -27.16 17.611 c 0.017 0.01 0.033 0.021 0.049 0.031 c 0.024 0.013 0.048 0.026 0.049 0.027 c 0.486 0.289 0.98 0.564 1.482 0.824 l 0.21 0.111 c 0.557 0.282 1.118 0.551 1.69 0.796 l 0.258 0.104 C 21.943 85.839 22.28 85.979 22.621 86.109 z M 71.04 85.586 h 0.01 H 71.04 z" style="stroke: none; stroke-width: 1; stroke-dasharray: none; stroke-linecap: butt; stroke-linejoin: miter; stroke-miterlimit: 10; fill: rgb(0,0,0); fill-rule: nonzero; opacity: 1;" transform=" matrix(1 0 0 1 0 0) " stroke-linecap="round" />
	<path d="M 49.409 84.239 c -0.199 0 -0.397 -0.06 -0.566 -0.176 c -2.193 -1.505 -5.438 -1.508 -7.632 -0.001 c -0.26 0.18 -0.589 0.225 -0.888 0.122 l -10.557 -3.592 c -0.321 -0.109 -0.565 -0.374 -0.648 -0.704 c -0.083 -0.329 0.008 -0.679 0.241 -0.926 c 3.829 -4.084 9.54 -6.427 15.667 -6.427 c 6.13 0 11.842 2.342 15.673 6.426 c 0.232 0.248 0.323 0.598 0.24 0.927 c -0.082 0.33 -0.326 0.595 -0.647 0.704 l -10.56 3.593 C 49.626 84.221 49.518 84.239 49.409 84.239 z M 45.026 80.911 c 1.628 0 3.178 0.422 4.517 1.226 l 8.557 -2.911 c -3.404 -2.998 -8.08 -4.691 -13.074 -4.691 c -4.992 0 -9.666 1.692 -13.068 4.691 l 8.554 2.91 C 41.849 81.333 43.399 80.911 45.026 80.911 z" style="stroke: none; stroke-width: 1; stroke-dasharray: none; stroke-linecap: butt; stroke-linejoin: miter; stroke-miterlimit: 10; fill: rgb(0,0,0); fill-rule: nonzero; opacity: 1;" transform=" matrix(1 0 0 1 0 0) " stroke-linecap="round" />
	<path d="M 45 58.651 l 11 -11.253 l 0 0 c -2.6 -0.438 -3.404 -3.606 -3.404 -6.041 l -0.042 -1.74 h 0.005 H 37.475 l -0.042 1.74 c 0 2.435 -0.833 5.603 -3.432 6.041 L 45 58.651" style="stroke: none; stroke-width: 1; stroke-dasharray: none; stroke-linecap: butt; stroke-linejoin: miter; stroke-miterlimit: 10; fill: rgb(229,168,118); fill-rule: nonzero; opacity: 1;" transform=" matrix(1 0 0 1 0 0) " stroke-linecap="round" />
	<path d="M 45 59.651 c -0.269 0 -0.527 -0.108 -0.715 -0.301 l -11 -11.253 c -0.26 -0.267 -0.351 -0.655 -0.235 -1.009 c 0.115 -0.354 0.418 -0.614 0.784 -0.677 c 1.918 -0.323 2.599 -2.925 2.599 -5.055 l 0.042 -1.764 c 0.013 -0.543 0.457 -0.976 1 -0.976 h 15.084 c 0.553 0 1 0.448 1 1 c 0 0.025 -0.001 0.05 -0.003 0.075 l 0.04 1.641 c 0 2.156 0.673 4.76 2.569 5.079 c 0.367 0.063 0.67 0.323 0.785 0.677 c 0.115 0.354 0.024 0.742 -0.236 1.009 L 45.715 59.35 C 45.527 59.543 45.269 59.651 45 59.651 z M 35.768 47.776 L 45 57.22 l 9.236 -9.448 c -1.917 -1.238 -2.64 -3.956 -2.64 -6.415 l -0.018 -0.74 H 38.451 l -0.019 0.764 C 38.433 43.823 37.703 46.539 35.768 47.776 z" style="stroke: none; stroke-width: 1; stroke-dasharray: none; stroke-linecap: butt; stroke-linejoin: miter; stroke-miterlimit: 10; fill: rgb(0,0,0); fill-rule: nonzero; opacity: 1;" transform=" matrix(1 0 0 1 0 0) " stroke-linecap="round" />
	<path d="M 58.355 23.74 l -0.529 8.235 c -0.523 6.253 -4.642 11.629 -10.543 13.762 l 0 0 c -0.737 0.266 -1.51 0.4 -2.282 0.4 c -0.772 0 -1.545 -0.133 -2.282 -0.4 l 0 0 c -5.902 -2.133 -10.02 -7.508 -10.543 -13.762 l -0.498 -8.235 v -9.844 h 26.678 V 23.74 z" style="stroke: none; stroke-width: 1; stroke-dasharray: none; stroke-linecap: butt; stroke-linejoin: miter; stroke-miterlimit: 10; fill: rgb(249,189,145); fill-rule: nonzero; opacity: 1;" transform=" matrix(1 0 0 1 0 0) " stroke-linecap="round" />
	<path d="M 58.355 23.74 c 5.892 -8.769 3.218 -14.744 -6.268 -18.499 c 0.207 -0.866 1.401 -1.733 3.287 -2.599 C 47.572 -0.289 38.294 0.382 34.05 7.236 c -5.815 1.96 -7.595 8.468 -2.373 16.504 c 0.583 -9.836 6.968 -9.037 14.677 -5.81 c 3.898 1.492 7.282 1.338 10.473 0.841 C 58.57 18.445 58.484 21.548 58.355 23.74 z" style="stroke: none; stroke-width: 1; stroke-dasharray: none; stroke-linecap: butt; stroke-linejoin: miter; stroke-miterlimit: 10; fill: rgb(73,73,112); fill-rule: nonzero; opacity: 1;" transform=" matrix(1 0 0 1 0 0) " stroke-linecap="round" />
	<path d="M 58.355 24.741 c -0.106 0 -0.214 -0.017 -0.319 -0.052 c -0.428 -0.144 -0.705 -0.556 -0.679 -1.006 c 0.187 -3.179 -0.159 -3.822 -0.316 -3.95 c -3.098 0.502 -6.779 0.765 -11.045 -0.867 c -3.356 -1.403 -8.083 -3.066 -10.708 -1.429 c -1.541 0.961 -2.42 3.102 -2.613 6.364 c -0.025 0.431 -0.325 0.797 -0.742 0.908 c -0.418 0.109 -0.858 -0.06 -1.094 -0.422 c -2.995 -4.61 -3.968 -9.095 -2.738 -12.63 c 0.845 -2.428 2.716 -4.28 5.291 -5.246 c 4.75 -7.257 14.593 -7.612 22.335 -4.703 c 0.378 0.142 0.634 0.497 0.647 0.9 c 0.015 0.403 -0.215 0.776 -0.582 0.944 c -1.114 0.512 -1.775 0.932 -2.166 1.25 c 4.614 2.041 7.451 4.687 8.442 7.878 c 1.033 3.327 0.063 7.236 -2.881 11.619 C 58.996 24.58 58.681 24.741 58.355 24.741 z M 46.644 1.998 c -4.723 0 -9.192 1.643 -11.744 5.764 c -0.123 0.198 -0.31 0.347 -0.531 0.421 c -2.182 0.735 -3.696 2.163 -4.38 4.128 c -0.809 2.326 -0.416 5.234 1.099 8.369 c 0.545 -2.342 1.584 -3.971 3.141 -4.943 c 3.373 -2.102 8.457 -0.426 12.51 1.27 c 3.79 1.449 7.015 1.23 9.932 0.775 c 0.803 -0.147 1.365 0.161 1.692 0.448 c 0.482 0.425 0.765 1.058 0.913 1.887 c 1.196 -2.581 1.492 -4.875 0.88 -6.846 c -0.884 -2.846 -3.723 -5.235 -8.438 -7.101 c -0.463 -0.183 -0.72 -0.678 -0.605 -1.162 c 0.178 -0.745 0.748 -1.442 1.757 -2.131 C 50.84 2.315 48.717 1.998 46.644 1.998 z" style="stroke: none; stroke-width: 1; stroke-dasharray: none; stroke-linecap: butt; stroke-linejoin: miter; stroke-miterlimit: 10; fill: rgb(0,0,0); fill-rule: nonzero; opacity: 1;" transform=" matrix(1 0 0 1 0 0) " stroke-linecap="round" />
	<path d="M 45 47.136 c -0.898 0 -1.779 -0.154 -2.622 -0.459 c -6.25 -2.258 -10.647 -7.996 -11.2 -14.618 l -0.5 -8.257 c -0.034 -0.551 0.386 -1.025 0.938 -1.059 c 0.536 -0.045 1.025 0.386 1.059 0.938 l 0.498 8.234 c 0.487 5.823 4.368 10.888 9.885 12.882 c 1.248 0.451 2.636 0.451 3.884 0 c 5.517 -1.993 9.397 -7.058 9.886 -12.905 l 0.528 -8.215 c 0.035 -0.551 0.498 -0.969 1.063 -0.934 c 0.551 0.036 0.969 0.511 0.934 1.063 l -0.53 8.234 c -0.555 6.641 -4.95 12.379 -11.201 14.638 C 46.78 46.982 45.898 47.136 45 47.136 z" style="stroke: none; stroke-width: 1; stroke-dasharray: none; stroke-linecap: butt; stroke-linejoin: miter; stroke-miterlimit: 10; fill: rgb(0,0,0); fill-rule: nonzero; opacity: 1;" transform=" matrix(1 0 0 1 0 0) " stroke-linecap="round" />
	<path d="M 44.915 40.249 c -2.514 0 -4.721 -1.328 -5.367 -3.229 c -0.178 -0.523 0.102 -1.091 0.625 -1.269 c 0.522 -0.178 1.09 0.102 1.269 0.625 c 0.369 1.085 1.83 1.872 3.474 1.872 c 1.644 0 3.105 -0.787 3.473 -1.872 c 0.178 -0.522 0.741 -0.802 1.27 -0.625 c 0.522 0.178 0.803 0.746 0.625 1.269 C 49.636 38.921 47.429 40.249 44.915 40.249 z" style="stroke: none; stroke-width: 1; stroke-dasharray: none; stroke-linecap: butt; stroke-linejoin: miter; stroke-miterlimit: 10; fill: rgb(0,0,0); fill-rule: nonzero; opacity: 1;" transform=" matrix(1 0 0 1 0 0) " stroke-linecap="round" />
	<path d="M 42.065 29.106 h -3.515 c -0.552 0 -1 -0.448 -1 -1 s 0.448 -1 1 -1 h 3.515 c 0.552 0 1 0.448 1 1 S 42.617 29.106 42.065 29.106 z" style="stroke: none; stroke-width: 1; stroke-dasharray: none; stroke-linecap: butt; stroke-linejoin: miter; stroke-miterlimit: 10; fill: rgb(0,0,0); fill-rule: nonzero; opacity: 1;" transform=" matrix(1 0 0 1 0 0) " stroke-linecap="round" />
	<path d="M 51.281 29.106 h -3.516 c -0.553 0 -1 -0.448 -1 -1 s 0.447 -1 1 -1 h 3.516 c 0.553 0 1 0.448 1 1 S 51.833 29.106 51.281 29.106 z" style="stroke: none; stroke-width: 1; stroke-dasharray: none; stroke-linecap: butt; stroke-linejoin: miter; stroke-miterlimit: 10; fill: rgb(0,0,0); fill-rule: nonzero; opacity: 1;" transform=" matrix(1 0 0 1 0 0) " stroke-linecap="round" />
	<path d="M 67.279 75.353 c -0.256 0 -0.512 -0.098 -0.707 -0.293 c -0.391 -0.391 -0.391 -1.024 0 -1.414 c 1.549 -1.548 2.234 -2.517 2.222 -3.142 c -0.013 -0.676 -0.99 -1.58 -2.344 -2.831 c -0.568 -0.525 -1.213 -1.121 -1.917 -1.817 c -0.394 -0.389 -0.397 -1.022 -0.01 -1.414 c 0.39 -0.394 1.023 -0.397 1.414 -0.01 c 0.688 0.679 1.316 1.259 1.87 1.772 c 1.78 1.647 2.956 2.734 2.986 4.262 c 0.028 1.461 -1.054 2.841 -2.808 4.594 C 67.79 75.256 67.534 75.353 67.279 75.353 z" style="stroke: none; stroke-width: 1; stroke-dasharray: none; stroke-linecap: butt; stroke-linejoin: miter; stroke-miterlimit: 10; fill: rgb(0,0,0); fill-rule: nonzero; opacity: 1;" transform=" matrix(1 0 0 1 0 0) " stroke-linecap="round" />
	<path d="M 16.69 85.266 c -0.184 0 -0.369 -0.051 -0.536 -0.156 c -1.673 -1.064 -3.25 -2.291 -4.689 -3.649 C 5.208 75.557 4.462 70.625 8.803 63.87 l 4.014 -6.246 c 1.955 -3.04 4.488 -5.57 7.529 -7.518 c 3.785 -2.425 8.379 -3.707 13.286 -3.707 H 34 c 0.552 0 1 0.447 1 1 s -0.448 1 -1 1 h -0.368 c -4.524 0 -8.745 1.173 -12.207 3.391 c -2.798 1.792 -5.128 4.119 -6.926 6.916 l -4.014 6.246 c -3.791 5.899 -3.176 9.838 2.352 15.054 c 1.347 1.271 2.823 2.42 4.389 3.416 c 0.466 0.296 0.604 0.914 0.307 1.381 C 17.344 85.102 17.02 85.266 16.69 85.266 z" style="stroke: none; stroke-width: 1; stroke-dasharray: none; stroke-linecap: butt; stroke-linejoin: miter; stroke-miterlimit: 10; fill: rgb(0,0,0); fill-rule: nonzero; opacity: 1;" transform=" matrix(1 0 0 1 0 0) " stroke-linecap="round" />
	<path d="M 22.772 75.353 c -0.256 0 -0.512 -0.098 -0.707 -0.293 c -1.754 -1.753 -2.836 -3.134 -2.808 -4.595 c 0.03 -1.528 1.206 -2.615 2.986 -4.26 c 0.555 -0.514 1.183 -1.094 1.87 -1.773 c 0.393 -0.388 1.027 -0.384 1.414 0.01 c 0.388 0.393 0.384 1.025 -0.009 1.414 c -0.705 0.695 -1.349 1.291 -1.918 1.817 c -1.353 1.25 -2.331 2.153 -2.344 2.83 c -0.012 0.625 0.673 1.594 2.222 3.142 c 0.391 0.39 0.391 1.023 0 1.414 C 23.284 75.256 23.028 75.353 22.772 75.353 z" style="stroke: none; stroke-width: 1; stroke-dasharray: none; stroke-linecap: butt; stroke-linejoin: miter; stroke-miterlimit: 10; fill: rgb(0,0,0); fill-rule: nonzero; opacity: 1;" transform=" matrix(1 0 0 1 0 0) " stroke-linecap="round" />
	<path d="M 73.404 85.238 c -0.331 0 -0.654 -0.164 -0.845 -0.463 c -0.297 -0.467 -0.159 -1.084 0.307 -1.381 c 1.48 -0.94 2.844 -2.017 4.296 -3.388 c 5.529 -5.215 6.144 -9.155 2.353 -15.054 l -4.014 -6.246 c -1.798 -2.797 -4.128 -5.124 -6.925 -6.916 c -3.463 -2.218 -7.684 -3.391 -12.208 -3.391 H 56 c -0.553 0 -1 -0.447 -1 -1 s 0.447 -1 1 -1 h 0.368 c 4.907 0 9.501 1.282 13.286 3.707 c 3.042 1.948 5.575 4.478 7.529 7.518 l 4.014 6.246 c 4.342 6.755 3.596 11.687 -2.661 17.591 c -1.547 1.459 -3.007 2.61 -4.595 3.62 C 73.773 85.187 73.588 85.238 73.404 85.238 z" style="stroke: none; stroke-width: 1; stroke-dasharray: none; stroke-linecap: butt; stroke-linejoin: miter; stroke-miterlimit: 10; fill: rgb(0,0,0); fill-rule: nonzero; opacity: 1;" transform=" matrix(1 0 0 1 0 0) " stroke-linecap="round" />
	<path d="M 67.229 75.353 c -0.256 0 -0.512 -0.098 -0.707 -0.293 c -0.391 -0.391 -0.391 -1.023 0 -1.414 c 1.549 -1.548 2.234 -2.517 2.222 -3.142 c -0.014 -0.677 -0.991 -1.58 -2.344 -2.831 c -0.568 -0.525 -1.213 -1.121 -1.917 -1.817 c -0.394 -0.389 -0.397 -1.022 -0.01 -1.414 c 0.39 -0.394 1.023 -0.397 1.414 -0.01 c 0.688 0.679 1.315 1.259 1.87 1.772 c 1.78 1.646 2.956 2.733 2.986 4.261 c 0.029 1.461 -1.053 2.842 -2.807 4.595 C 67.741 75.256 67.485 75.353 67.229 75.353 z" style="stroke: none; stroke-width: 1; stroke-dasharray: none; stroke-linecap: butt; stroke-linejoin: miter; stroke-miterlimit: 10; fill: rgb(0,0,0); fill-rule: nonzero; opacity: 1;" transform=" matrix(1 0 0 1 0 0) " stroke-linecap="round" />
	<path d="M 16.691 84.266 l 4.536 0.159 c 1.627 0.057 3.115 -0.912 3.721 -2.423 l 0.796 -1.984 c 0.682 -1.701 0.075 -3.646 -1.452 -4.658 l -1.519 -1.006 C 16.61 74.717 14.606 78.038 16.691 84.266 z" style="stroke: none; stroke-width: 1; stroke-dasharray: none; stroke-linecap: butt; stroke-linejoin: miter; stroke-miterlimit: 10; fill: rgb(249,189,145); fill-rule: nonzero; opacity: 1;" transform=" matrix(1 0 0 1 0 0) " stroke-linecap="round" />
	<path d="M 73.402 84.237 l -4.486 0.188 c -1.627 0.057 -3.115 -0.912 -3.721 -2.423 L 64.4 80.017 c -0.682 -1.701 -0.075 -3.646 1.452 -4.658 l 1.519 -1.006 C 73.533 74.717 75.487 78.009 73.402 84.237 z" style="stroke: none; stroke-width: 1; stroke-dasharray: none; stroke-linecap: butt; stroke-linejoin: miter; stroke-miterlimit: 10; fill: rgb(249,189,145); fill-rule: nonzero; opacity: 1;" transform=" matrix(1 0 0 1 0 0) " stroke-linecap="round" />
	<path d="M 21.361 85.427 c -0.056 0 -0.112 -0.001 -0.168 -0.003 l -4.536 -0.159 c -0.417 -0.015 -0.781 -0.286 -0.913 -0.682 c -1.18 -3.524 -1.12 -6.285 0.178 -8.205 c 1.225 -1.813 3.51 -2.83 6.792 -3.024 c 0.213 -0.012 0.431 0.045 0.611 0.164 l 1.519 1.006 c 1.914 1.268 2.682 3.735 1.828 5.865 l -0.795 1.984 C 25.137 84.217 23.337 85.427 21.361 85.427 z M 17.432 83.291 l 3.83 0.135 c 1.216 0.041 2.31 -0.681 2.757 -1.797 l 0.795 -1.984 c 0.503 -1.254 0.05 -2.706 -1.076 -3.452 l -1.236 -0.819 c -2.447 0.195 -4.102 0.909 -4.924 2.125 C 16.719 78.769 16.67 80.717 17.432 83.291 z" style="stroke: none; stroke-width: 1; stroke-dasharray: none; stroke-linecap: butt; stroke-linejoin: miter; stroke-miterlimit: 10; fill: rgb(0,0,0); fill-rule: nonzero; opacity: 1;" transform=" matrix(1 0 0 1 0 0) " stroke-linecap="round" />
	<path d="M 68.788 85.427 c -1.983 0 -3.781 -1.21 -4.521 -3.054 l -0.795 -1.984 c -0.855 -2.131 -0.085 -4.597 1.828 -5.865 l 1.519 -1.006 c 0.181 -0.119 0.397 -0.173 0.61 -0.164 c 3.272 0.193 5.546 1.202 6.76 2.998 c 1.308 1.935 1.36 4.617 0.161 8.202 c -0.132 0.394 -0.492 0.664 -0.906 0.682 l -4.487 0.188 C 68.902 85.426 68.845 85.427 68.788 85.427 z M 73.403 84.238 h 0.01 H 73.403 z M 67.641 75.374 l -1.236 0.819 c -1.126 0.746 -1.578 2.197 -1.075 3.452 l 0.795 1.984 c 0.448 1.117 1.566 1.825 2.757 1.797 l 3.78 -0.158 c 0.768 -2.586 0.725 -4.533 -0.127 -5.794 C 71.722 76.273 70.078 75.568 67.641 75.374 z" style="stroke: none; stroke-width: 1; stroke-dasharray: none; stroke-linecap: butt; stroke-linejoin: miter; stroke-miterlimit: 10; fill: rgb(0,0,0); fill-rule: nonzero; opacity: 1;" transform=" matrix(1 0 0 1 0 0) " stroke-linecap="round" />
</g>
</svg>