<svg xmlns="http://www.w3.org/2000/svg" xmlns:xlink="http://www.w3.org/1999/xlink" version="1.1" width="256" height="256" viewBox="0 0 256 256" xml:space="preserve">

<defs>
</defs>
<g style="stroke: none; stroke-width: 0; stroke-dasharray: none; stroke-linecap: butt; stroke-linejoin: miter; stroke-miterlimit: 10; fill: none; fill-rule: nonzero; opacity: 1;" transform="translate(1.4065934065934016 1.4065934065934016) scale(2.81 2.81)" >
	<circle cx="75.85000000000001" cy="63.18" r="7.67" style="stroke: none; stroke-width: 1; stroke-dasharray: none; stroke-linecap: butt; stroke-linejoin: miter; stroke-miterlimit: 10; fill: rgb(42,70,111); fill-rule: nonzero; opacity: 1;" transform="  matrix(1 0 0 1 0 0) "/>
	<circle cx="21.47" cy="63.18" r="7.67" style="stroke: none; stroke-width: 1; stroke-dasharray: none; stroke-linecap: butt; stroke-linejoin: miter; stroke-miterlimit: 10; fill: rgb(42,70,111); fill-rule: nonzero; opacity: 1;" transform="  matrix(1 0 0 1 0 0) "/>
	<path d="M 89.388 44.371 L 74.31 27.41 c -0.459 -0.517 -1.118 -0.812 -1.809 -0.812 H 57.174 c -2.538 6.718 -2.636 13.319 0 19.789 c -16.023 -3.84 -36.291 -2.31 -57.174 0 v 14.509 c 0 1.451 1.176 2.626 2.626 2.626 h 5.67 h 2.965 c -0.004 -0.115 -0.017 -0.228 -0.017 -0.344 c 0 -5.648 4.579 -10.227 10.227 -10.227 c 5.648 0 10.227 4.579 10.227 10.227 c 0 0.116 -0.014 0.229 -0.017 0.344 h 25.494 h 8.462 c -0.004 -0.115 -0.017 -0.228 -0.017 -0.344 c 0 -5.648 4.579 -10.227 10.227 -10.227 c 5.648 0 10.227 4.579 10.227 10.227 c 0 0.116 -0.014 0.229 -0.017 0.344 h 1.523 c 1.337 0 2.421 -1.084 2.421 -2.421 V 45.98 C 90 45.387 89.782 44.815 89.388 44.371 z" style="stroke: none; stroke-width: 1; stroke-dasharray: none; stroke-linecap: butt; stroke-linejoin: miter; stroke-miterlimit: 10; fill: rgb(173,196,229); fill-rule: nonzero; opacity: 1;" transform=" matrix(1 0 0 1 0 0) " stroke-linecap="round" />
	<path d="M 90 45.059 l -21.282 0 c -1.196 0 -2.165 -0.969 -2.165 -2.165 v -8.051 c 0 -1.196 0.969 -2.165 2.165 -2.165 l 10.276 0 C 84.077 34.933 87.444 39.459 90 45.059 z" style="stroke: none; stroke-width: 1; stroke-dasharray: none; stroke-linecap: butt; stroke-linejoin: miter; stroke-miterlimit: 10; fill: rgb(225,231,241); fill-rule: nonzero; opacity: 1;" transform=" matrix(1 0 0 1 0 0) " stroke-linecap="round" />
	<circle cx="21.467" cy="63.177" r="2.557" style="stroke: none; stroke-width: 1; stroke-dasharray: none; stroke-linecap: butt; stroke-linejoin: miter; stroke-miterlimit: 10; fill: rgb(59,88,131); fill-rule: nonzero; opacity: 1;" transform="  matrix(1 0 0 1 0 0) "/>
	<circle cx="75.84700000000001" cy="63.177" r="2.557" style="stroke: none; stroke-width: 1; stroke-dasharray: none; stroke-linecap: butt; stroke-linejoin: miter; stroke-miterlimit: 10; fill: rgb(59,88,131); fill-rule: nonzero; opacity: 1;" transform="  matrix(1 0 0 1 0 0) "/>
	<path d="M 57.174 51.019 v -6.452 v -9.543 V 24.6 c 0 -3.009 -2.439 -5.448 -5.448 -5.448 H 5.448 C 2.439 19.153 0 21.592 0 24.6 v 26.419 H 57.174 z" style="stroke: none; stroke-width: 1; stroke-dasharray: none; stroke-linecap: butt; stroke-linejoin: miter; stroke-miterlimit: 10; fill: rgb(87,134,204); fill-rule: nonzero; opacity: 1;" transform=" matrix(1 0 0 1 0 0) " stroke-linecap="round" />
</g>
</svg>